<?xml version="1.0" standalone="no"?>
<!DOCTYPE svg PUBLIC "-//W3C//DTD SVG 20010904//EN"
 "http://www.w3.org/TR/2001/REC-SVG-20010904/DTD/svg10.dtd">
<svg version="1.0" xmlns="http://www.w3.org/2000/svg"
 width="1024.000000pt" height="1024.000000pt" viewBox="0 0 1024.000000 1024.000000"
 preserveAspectRatio="xMidYMid meet">

<g transform="translate(0.000000,1024.000000) scale(0.100000,-0.100000)"
fill="#000000" stroke="none">
<path d="M5105 7939 c-396 -34 -853 -162 -1203 -338 -593 -298 -1148 -852
-1437 -1434 -170 -341 -276 -682 -327 -1051 -28 -200 -30 -585 -4 -786 57
-444 178 -822 387 -1205 224 -412 565 -794 974 -1092 166 -120 462 -280 665
-360 221 -86 509 -161 765 -200 167 -25 670 -25 860 0 447 60 873 201 1241
413 225 129 414 275 628 484 222 217 386 422 533 666 428 708 562 1631 357
2459 -72 289 -212 626 -369 886 -333 548 -880 1028 -1465 1282 -517 225 -1074
321 -1605 276z m665 -353 c365 -60 616 -139 916 -286 658 -324 1189 -909 1429
-1575 136 -377 180 -627 179 -1015 -2 -402 -53 -698 -182 -1045 -163 -441
-462 -861 -837 -1180 -227 -193 -391 -301 -627 -414 -316 -151 -551 -221 -913
-273 -123 -18 -619 -17 -745 1 -458 64 -865 218 -1236 468 -376 252 -703 610
-936 1023 -387 685 -467 1555 -214 2331 182 559 591 1106 1086 1455 395 278
836 452 1305 513 44 6 94 13 110 15 77 11 574 -3 665 -18z"/>
<path d="M5205 7259 c-251 -13 -519 -73 -761 -169 -458 -183 -827 -466 -1132
-869 -278 -366 -454 -828 -493 -1287 -14 -164 -7 -434 16 -614 51 -403 240
-850 501 -1182 145 -185 345 -383 514 -511 257 -193 603 -355 915 -427 258
-60 294 -64 590 -65 263 0 289 2 437 28 294 52 469 108 733 237 256 124 451
267 667 486 242 246 379 438 514 718 149 311 230 653 241 1026 10 353 -39 636
-174 1000 -220 597 -713 1116 -1323 1396 -397 181 -799 257 -1245 233z m389
-364 c412 -48 794 -203 1131 -458 101 -77 284 -255 383 -372 190 -226 335
-512 412 -817 77 -298 81 -747 10 -1045 -38 -159 -118 -384 -139 -391 -14 -5
-100 43 -201 111 -113 75 -111 73 -95 111 22 52 63 225 82 342 12 75 17 166
17 294 -1 208 -16 302 -79 497 -216 659 -850 1165 -1557 1242 -359 40 -650
-43 -857 -242 -106 -103 -184 -240 -211 -372 -16 -78 -14 -248 5 -320 21 -82
85 -209 138 -273 92 -111 191 -179 332 -228 l80 -28 380 -7 c403 -7 425 -9
566 -62 324 -122 597 -406 703 -730 82 -250 85 -517 10 -742 -69 -208 -155
-346 -319 -510 -190 -191 -389 -302 -660 -369 -191 -47 -513 -47 -745 -1 -261
52 -575 178 -785 315 -494 323 -862 856 -979 1418 -48 230 -55 517 -19 782 16
122 70 332 103 407 19 43 21 45 42 31 13 -8 82 -50 153 -93 72 -43 132 -80
134 -82 2 -1 -8 -51 -22 -110 -41 -170 -50 -255 -50 -458 0 -171 3 -202 27
-310 40 -171 71 -266 126 -380 145 -301 432 -617 716 -788 175 -105 416 -198
616 -238 122 -25 395 -31 495 -11 290 58 501 210 619 447 98 198 99 398 2 594
-81 164 -255 305 -429 346 -50 11 -134 15 -374 15 -356 0 -454 9 -579 51 -420
140 -735 504 -823 948 -25 125 -22 337 5 462 64 293 239 556 501 752 300 224
708 322 1135 272z m126 -1030 c118 -26 308 -92 390 -137 174 -95 372 -272 489
-438 114 -162 192 -359 215 -545 l6 -50 -117 116 c-214 210 -303 283 -461 373
-251 143 -498 208 -852 222 -176 7 -239 20 -292 64 -107 88 -106 275 2 360 72
57 93 61 330 55 144 -3 240 -9 290 -20z m-1405 -1597 c140 -106 305 -192 477
-249 177 -60 292 -79 528 -88 153 -7 215 -13 245 -25 100 -42 161 -129 153
-221 -13 -150 -134 -245 -313 -245 -122 0 -326 20 -410 40 -180 42 -363 127
-506 235 -106 79 -258 236 -328 338 -102 150 -200 382 -217 518 l-6 54 158
-156 c88 -85 186 -176 219 -201z"/>
</g>
</svg>
